# xmcd
#
# Track frame offsets: 
#        183
#        11113
#        24300
#        38508
#        52588
#        66908
#        87233
#        98923
#        110773
#        125145
#        136508
#        151273
#        162650
#        173733
#
# Disc length: 2653 seconds
#
# Revision: 0
# Processed by: cddbd v1.5.2PL0 Copyright (c) Steve Scherf et al.
# Submitted via: ExactAudioCopy v0.95b4
#
DISCID=ac0a5b0e
DTITLE=Various Artist - Trucker Songs, Folge 6
DYEAR=1900
DGENRE=
TTITLE0=Mel McDaniel - Lousiana Saturday Night
TTITLE1=Lee Greenwood - I´ll never stop loving you
TTITLE2=Karen Taylor-Good - Starlight, Starbright
TTITLE3=Forster Sisters - I feel in love again last night
TTITLE4=Eddy Raven - San Antonio Nights
TTITLE5=T.G. Sheppard - Last Cheasters Waltz
TTITLE6=Jerry Lee Lewis - Rockin´ my life away
TTITLE7=Jimmy Dean - Nine pound hammer
TTITLE8=Hoyt Axton - Evangelina
TTITLE9=Johnny Russell - Got no reason now for going home
TTITLE10=Freddy Weller - Games people play
TTITLE11=Jeannie C. Riley - Total woman
TTITLE12=Gene Watson - Memories to burn
TTITLE13=Bobby Bare - Medley
EXTD=
EXTT0=
EXTT1=
EXTT2=
EXTT3=
EXTT4=
EXTT5=
EXTT6=
EXTT7=
EXTT8=
EXTT9=
EXTT10=
EXTT11=
EXTT12=
EXTT13=
PLAYORDER=
